<?xml version="1.0" encoding="UTF-8" standalone="no"?>
<!DOCTYPE svg PUBLIC "-//W3C//DTD SVG 1.1//EN" "http://www.w3.org/Graphics/SVG/1.1/DTD/svg11.dtd">
<svg xmlns="http://www.w3.org/2000/svg" version="1.1" viewBox="0.00 0.00 1448.00 1447.00">
<g stroke-width="2.00" fill="none" stroke-linecap="butt">
<path stroke="#E87461" vector-effect="non-scaling-stroke" d="   M 638.71 752.75   C 635.84 763.12 631.73 772.97 628.07 783.07   C 625.60 789.90 625.29 797.08 623.59 803.46   C 614.71 836.97 606.96 871.02 602.37 905.40   Q 590.09 997.53 598.85 1090.31   A 0.30 0.30 0.0 0 0 599.33 1090.53   Q 599.76 1090.21 600.03 1089.51   Q 613.66 1054.49 629.40 1020.38   Q 630.42 1018.18 630.45 1015.74   Q 630.78 989.24 632.39 962.79   C 633.28 948.25 635.32 933.09 636.98 918.25   C 641.35 879.02 649.89 839.99 661.23 802.19   C 664.20 792.29 669.97 777.52 674.19 763.90   C 684.79 729.76 700.91 698.36 716.16 666.20   Q 716.35 665.79 715.93 665.98   Q 656.60 692.86 604.98 732.64   Q 603.23 733.99 602.30 736.01   Q 585.40 772.49 570.78 810.01   Q 570.53 810.64 571.03 810.18   Q 582.62 799.32 594.26 788.54   Q 615.17 769.17 638.30 752.46   A 0.27 0.26 79.7 0 1 638.71 752.75"/>
<path stroke="#E87461" vector-effect="non-scaling-stroke" d="   M 668.62 1180.63   Q 674.78 1156.40 684.02 1132.87   C 700.19 1091.70 717.95 1050.68 738.98 1011.73   C 760.94 971.04 784.72 931.37 811.38 893.57   C 822.57 877.72 834.76 862.31 846.54 846.80   Q 864.91 822.62 898.28 785.55   Q 900.15 783.47 901.30 779.51   Q 911.37 744.66 923.60 710.34   A 0.54 0.54 0.0 0 0 922.71 709.77   Q 909.20 722.99 895.80 736.66   C 743.13 892.46 638.31 1093.07 597.45 1307.48   A 0.19 0.19 0.0 0 0 597.79 1307.64   C 607.80 1295.39 617.90 1282.75 628.19 1271.33   C 682.70 1210.83 745.89 1160.51 817.90 1121.19   C 831.28 1113.88 846.18 1106.91 860.34 1099.71   Q 860.73 1099.51 860.72 1099.08   L 860.11 1061.47   Q 860.10 1060.91 859.59 1061.14   Q 755.35 1106.73 669.18 1180.98   A 0.35 0.35 0.0 0 1 668.62 1180.63"/>
<path stroke="#E87461" vector-effect="non-scaling-stroke" d="   M 573.95 859.38   Q 561.42 874.23 550.47 889.45   C 543.51 899.13 538.32 905.86 534.42 914.17   C 529.03 925.61 527.52 937.09 526.68 951.23   Q 523.60 1003.27 525.12 1047.43   C 526.44 1085.93 531.54 1126.03 538.72 1166.11   Q 544.74 1199.74 553.74 1232.75   A 0.20 0.20 0.0 0 0 554.13 1232.75   C 559.71 1209.54 566.92 1186.93 573.43 1164.00   Q 574.07 1161.76 573.69 1159.45   C 569.74 1135.67 566.25 1114.64 563.74 1088.00   C 561.79 1067.15 560.20 1039.52 560.23 1014.00   C 560.28 961.27 564.95 912.30 574.69 859.72   Q 574.98 858.15 573.95 859.38"/>
<path stroke="#E87461" vector-effect="non-scaling-stroke" d="   M 492.47 1087.60   Q 481.59 1148.92 476.89 1210.51   C 476.73 1212.59 476.64 1214.28 477.13 1216.40   C 489.14 1269.13 505.95 1322.11 527.18 1371.94   Q 527.63 1373.01 527.82 1371.86   C 531.47 1349.69 534.86 1326.94 538.43 1305.34   Q 538.78 1303.25 538.10 1301.23   C 514.82 1232.03 499.72 1162.51 493.10 1088.75   Q 493.07 1088.39 492.91 1088.07   L 492.67 1087.57   A 0.11 0.10 -52.9 0 0 492.47 1087.60"/>
</g>
<path fill="#E87461" d="   M 812.03 591.08   C 756.66 602.79 702.09 624.46 652.62 651.79   A 0.36 0.35 0.7 0 1 652.14 651.30   C 662.45 633.79 672.24 615.79 682.91 598.41   Q 728.16 524.80 781.60 456.91   C 793.80 441.43 806.83 426.48 819.53 411.38   C 877.05 343.00 943.12 281.85 1012.74 226.04   C 1024.94 216.26 1038.02 206.95 1050.77 197.54   Q 1154.70 120.88 1270.77 64.23   Q 1274.68 62.32 1278.42 60.28   A 0.29 0.29 0.0 0 1 1278.79 60.71   Q 1258.98 87.61 1241.02 115.73   C 1218.36 151.20 1198.66 189.17 1181.45 227.57   Q 1181.24 228.03 1180.82 228.31   C 1167.25 237.30 1153.25 246.27 1140.24 255.40   Q 1081.61 296.54 1035.07 336.33   Q 966.30 395.11 900.58 469.33   Q 890.22 481.02 865.92 511.17   C 864.09 513.45 862.79 515.01 864.47 517.95   C 866.01 520.65 870.07 522.82 872.97 520.44   C 876.98 517.14 881.09 512.82 884.14 509.89   C 925.57 470.07 972.19 434.25 1022.12 405.73   Q 1077.61 374.03 1137.92 352.22   A 0.48 0.48 0.0 0 1 1138.55 352.79   C 1128.03 395.90 1120.13 439.67 1115.75 483.25   C 1115.48 485.92 1115.04 487.46 1112.53 488.89   C 1086.76 503.60 1061.23 518.79 1036.70 535.51   C 929.59 608.54 834.78 696.13 756.99 797.99   Q 733.42 828.86 707.36 868.01   C 697.80 882.38 688.71 897.69 679.38 912.54   Q 679.10 913.00 679.18 912.47   C 687.98 853.34 703.14 795.98 726.64 740.83   C 750.03 685.96 778.35 638.10 812.26 591.44   A 0.23 0.23 0.0 0 0 812.03 591.08   Z"/>
<path fill="#E87461" d="   M 638.71 752.75   A 0.27 0.26 79.7 0 0 638.30 752.46   Q 615.17 769.17 594.26 788.54   Q 582.62 799.32 571.03 810.18   Q 570.53 810.64 570.78 810.01   Q 585.40 772.49 602.30 736.01   Q 603.23 733.99 604.98 732.64   Q 656.60 692.86 715.93 665.98   Q 716.35 665.79 716.16 666.20   C 700.91 698.36 684.79 729.76 674.19 763.90   C 669.97 777.52 664.20 792.29 661.23 802.19   C 649.89 839.99 641.35 879.02 636.98 918.25   C 635.32 933.09 633.28 948.25 632.39 962.79   Q 630.78 989.24 630.45 1015.74   Q 630.42 1018.18 629.40 1020.38   Q 613.66 1054.49 600.03 1089.51   Q 599.76 1090.21 599.33 1090.53   A 0.30 0.30 0.0 0 1 598.85 1090.31   Q 590.09 997.53 602.37 905.40   C 606.96 871.02 614.71 836.97 623.59 803.46   C 625.29 797.08 625.60 789.90 628.07 783.07   C 631.73 772.97 635.84 763.12 638.71 752.75   Z"/>
<path fill="#E87461" d="   M 668.62 1180.63   A 0.35 0.35 0.0 0 0 669.18 1180.98   Q 755.35 1106.73 859.59 1061.14   Q 860.10 1060.91 860.11 1061.47   L 860.72 1099.08   Q 860.73 1099.51 860.34 1099.71   C 846.18 1106.91 831.28 1113.88 817.90 1121.19   C 745.89 1160.51 682.70 1210.83 628.19 1271.33   C 617.90 1282.75 607.80 1295.39 597.79 1307.64   A 0.19 0.19 0.0 0 1 597.45 1307.48   C 638.31 1093.07 743.13 892.46 895.80 736.66   Q 909.20 722.99 922.71 709.77   A 0.54 0.54 0.0 0 1 923.60 710.34   Q 911.37 744.66 901.30 779.51   Q 900.15 783.47 898.28 785.55   Q 864.91 822.62 846.54 846.80   C 834.76 862.31 822.57 877.72 811.38 893.57   C 784.72 931.37 760.94 971.04 738.98 1011.73   C 717.95 1050.68 700.19 1091.70 684.02 1132.87   Q 674.78 1156.40 668.62 1180.63   Z"/>
<path fill="#E87461" d="   M 573.95 859.38   Q 574.98 858.15 574.69 859.72   C 564.95 912.30 560.28 961.27 560.23 1014.00   C 560.20 1039.52 561.79 1067.15 563.74 1088.00   C 566.25 1114.64 569.74 1135.67 573.69 1159.45   Q 574.07 1161.76 573.43 1164.00   C 566.92 1186.93 559.71 1209.54 554.13 1232.75   A 0.20 0.20 0.0 0 1 553.74 1232.75   Q 544.74 1199.74 538.72 1166.11   C 531.54 1126.03 526.44 1085.93 525.12 1047.43   Q 523.60 1003.27 526.68 951.23   C 527.52 937.09 529.03 925.61 534.42 914.17   C 538.32 905.86 543.51 899.13 550.47 889.45   Q 561.42 874.23 573.95 859.38   Z"/>
<path fill="#E87461" d="   M 492.47 1087.60   A 0.11 0.10 -52.9 0 1 492.67 1087.57   L 492.91 1088.07   Q 493.07 1088.39 493.10 1088.75   C 499.72 1162.51 514.82 1232.03 538.10 1301.23   Q 538.78 1303.25 538.43 1305.34   C 534.86 1326.94 531.47 1349.69 527.82 1371.86   Q 527.63 1373.01 527.18 1371.94   C 505.95 1322.11 489.14 1269.13 477.13 1216.40   C 476.64 1214.28 476.73 1212.59 476.89 1210.51   Q 481.59 1148.92 492.47 1087.60   Z"/>
<script xmlns=""/></svg>